<mxfile host="app.diagrams.net" modified="2024-03-06T10:02:07.945Z" agent="Mozilla/5.0 (Windows NT 10.0; Win64; x64) AppleWebKit/537.36 (KHTML, like Gecko) Chrome/122.0.0.0 Safari/537.36" etag="RMNSYiD3vJoxUxqQ_Zrw" version="24.0.2" type="github">
  <diagram name="Page-1" id="IQhDEu-CzyqysFeyJH2f">
    <mxGraphModel dx="880" dy="434" grid="1" gridSize="10" guides="1" tooltips="1" connect="1" arrows="1" fold="1" page="1" pageScale="1" pageWidth="850" pageHeight="1100" math="0" shadow="0">
      <root>
        <mxCell id="0" />
        <mxCell id="1" parent="0" />
        <mxCell id="pwVqVg-RK4_-Da-cYcVV-1" value="&lt;font style=&quot;font-size: 18px;&quot;&gt;C&lt;/font&gt;" style="ellipse;whiteSpace=wrap;html=1;aspect=fixed;fillColor=#fff2cc;strokeColor=#d6b656;gradientColor=#ffd966;fontStyle=1;labelBorderColor=none;strokeWidth=4;" vertex="1" parent="1">
          <mxGeometry x="480" y="190" width="50" height="50" as="geometry" />
        </mxCell>
        <mxCell id="pwVqVg-RK4_-Da-cYcVV-2" value="&lt;font style=&quot;font-size: 18px;&quot;&gt;B&lt;/font&gt;" style="ellipse;whiteSpace=wrap;html=1;aspect=fixed;fillColor=#fff2cc;strokeColor=#d6b656;gradientColor=#ffd966;fontStyle=1;labelBorderColor=none;strokeWidth=4;" vertex="1" parent="1">
          <mxGeometry x="340" y="110" width="50" height="50" as="geometry" />
        </mxCell>
        <mxCell id="pwVqVg-RK4_-Da-cYcVV-3" value="&lt;font style=&quot;font-size: 19px;&quot;&gt;A&lt;/font&gt;" style="ellipse;whiteSpace=wrap;html=1;aspect=fixed;fillColor=#fff2cc;strokeColor=#d6b656;gradientColor=#ffd966;fontStyle=1;labelBorderColor=none;strokeWidth=4;" vertex="1" parent="1">
          <mxGeometry x="150" y="110" width="50" height="50" as="geometry" />
        </mxCell>
        <mxCell id="pwVqVg-RK4_-Da-cYcVV-4" value="&lt;span style=&quot;font-size: 19px;&quot;&gt;F&lt;/span&gt;" style="ellipse;whiteSpace=wrap;html=1;aspect=fixed;fillColor=#fff2cc;strokeColor=#d6b656;gradientColor=#ffd966;fontStyle=1;labelBorderColor=none;strokeWidth=4;" vertex="1" parent="1">
          <mxGeometry x="150" y="270" width="50" height="50" as="geometry" />
        </mxCell>
        <mxCell id="pwVqVg-RK4_-Da-cYcVV-5" value="&lt;span style=&quot;font-size: 19px;&quot;&gt;E&lt;/span&gt;" style="ellipse;whiteSpace=wrap;html=1;aspect=fixed;fillColor=#fff2cc;strokeColor=#d6b656;gradientColor=#ffd966;fontStyle=1;labelBorderColor=none;strokeWidth=4;" vertex="1" parent="1">
          <mxGeometry x="340" y="270" width="50" height="50" as="geometry" />
        </mxCell>
        <mxCell id="pwVqVg-RK4_-Da-cYcVV-6" value="" style="endArrow=classic;html=1;rounded=0;strokeWidth=2;exitX=1;exitY=0.5;exitDx=0;exitDy=0;entryX=0;entryY=0.5;entryDx=0;entryDy=0;" edge="1" parent="1" source="pwVqVg-RK4_-Da-cYcVV-3" target="pwVqVg-RK4_-Da-cYcVV-2">
          <mxGeometry width="50" height="50" relative="1" as="geometry">
            <mxPoint x="400" y="250" as="sourcePoint" />
            <mxPoint x="450" y="200" as="targetPoint" />
          </mxGeometry>
        </mxCell>
        <mxCell id="pwVqVg-RK4_-Da-cYcVV-7" value="" style="endArrow=classic;html=1;rounded=0;strokeWidth=2;exitX=1;exitY=0.5;exitDx=0;exitDy=0;entryX=0;entryY=0.5;entryDx=0;entryDy=0;" edge="1" parent="1" source="pwVqVg-RK4_-Da-cYcVV-4" target="pwVqVg-RK4_-Da-cYcVV-5">
          <mxGeometry width="50" height="50" relative="1" as="geometry">
            <mxPoint x="210" y="294.5" as="sourcePoint" />
            <mxPoint x="330" y="300" as="targetPoint" />
          </mxGeometry>
        </mxCell>
        <mxCell id="pwVqVg-RK4_-Da-cYcVV-8" value="" style="endArrow=classic;html=1;rounded=0;strokeWidth=2;exitX=0.5;exitY=1;exitDx=0;exitDy=0;entryX=0.5;entryY=0;entryDx=0;entryDy=0;entryPerimeter=0;" edge="1" parent="1" source="pwVqVg-RK4_-Da-cYcVV-3" target="pwVqVg-RK4_-Da-cYcVV-4">
          <mxGeometry width="50" height="50" relative="1" as="geometry">
            <mxPoint x="180" y="170" as="sourcePoint" />
            <mxPoint x="170" y="260" as="targetPoint" />
            <Array as="points">
              <mxPoint x="175" y="210" />
            </Array>
          </mxGeometry>
        </mxCell>
        <mxCell id="pwVqVg-RK4_-Da-cYcVV-9" value="" style="endArrow=classic;html=1;rounded=0;strokeWidth=2;exitX=0.5;exitY=1;exitDx=0;exitDy=0;entryX=0.5;entryY=0;entryDx=0;entryDy=0;entryPerimeter=0;" edge="1" parent="1">
          <mxGeometry width="50" height="50" relative="1" as="geometry">
            <mxPoint x="364.5" y="160" as="sourcePoint" />
            <mxPoint x="364.5" y="270" as="targetPoint" />
            <Array as="points" />
          </mxGeometry>
        </mxCell>
        <mxCell id="pwVqVg-RK4_-Da-cYcVV-10" value="" style="endArrow=classic;html=1;rounded=0;strokeWidth=2;exitX=1;exitY=0.5;exitDx=0;exitDy=0;entryX=-0.02;entryY=0.82;entryDx=0;entryDy=0;entryPerimeter=0;" edge="1" parent="1" source="pwVqVg-RK4_-Da-cYcVV-5" target="pwVqVg-RK4_-Da-cYcVV-1">
          <mxGeometry width="50" height="50" relative="1" as="geometry">
            <mxPoint x="410" y="270" as="sourcePoint" />
            <mxPoint x="460" y="220" as="targetPoint" />
          </mxGeometry>
        </mxCell>
        <mxCell id="pwVqVg-RK4_-Da-cYcVV-11" value="" style="endArrow=classic;html=1;rounded=0;strokeWidth=2;entryX=0;entryY=0;entryDx=0;entryDy=0;exitX=1;exitY=0.5;exitDx=0;exitDy=0;" edge="1" parent="1" source="pwVqVg-RK4_-Da-cYcVV-2" target="pwVqVg-RK4_-Da-cYcVV-1">
          <mxGeometry width="50" height="50" relative="1" as="geometry">
            <mxPoint x="400" y="80" as="sourcePoint" />
            <mxPoint x="489" y="190" as="targetPoint" />
          </mxGeometry>
        </mxCell>
      </root>
    </mxGraphModel>
  </diagram>
</mxfile>
